<?xml version="1.0" encoding="UTF-8" standalone="no"?>
<svg
   height="48"
   width="48"
   version="1.1"
   id="svg4"
   sodipodi:docname="interact.svg"
   inkscape:version="1.1 (c68e22c387, 2021-05-23)"
   xmlns:inkscape="http://www.inkscape.org/namespaces/inkscape"
   xmlns:sodipodi="http://sodipodi.sourceforge.net/DTD/sodipodi-0.dtd"
   xmlns="http://www.w3.org/2000/svg"
   xmlns:svg="http://www.w3.org/2000/svg">
  <defs
     id="defs8" />
  <sodipodi:namedview
     id="namedview6"
     pagecolor="#ffffff"
     bordercolor="#666666"
     borderopacity="1.0"
     inkscape:pageshadow="2"
     inkscape:pageopacity="0.0"
     inkscape:pagecheckerboard="0"
     showgrid="false"
     inkscape:zoom="12.035547"
     inkscape:cx="19.567038"
     inkscape:cy="30.576093"
     inkscape:window-width="1920"
     inkscape:window-height="1009"
     inkscape:window-x="-8"
     inkscape:window-y="-8"
     inkscape:window-maximized="1"
     inkscape:current-layer="svg4" />
  <path
     d="m 21.25,42 c -0.566667,0 -1.1,-0.108333 -1.6,-0.325 -0.5,-0.216667 -0.933333,-0.508333 -1.3,-0.875 l -10.3,-10.3 2.8,-2.9 c 0.466667,-0.466667 0.991667,-0.825 1.575,-1.075 0.583333,-0.25 1.191667,-0.291667 1.825,-0.125 l 3.9,0.9 V 11 C 18.15,9.6 18.633333,8.4166667 19.6,7.45 20.566667,6.4833333 21.75,6 23.15,6 c 1.4,0 2.583333,0.4833333 3.55,1.45 0.966667,0.9666667 1.45,2.15 1.45,3.55 v 8.6 h 1.3 c 0.166667,0 0.316667,0.03333 0.45,0.1 0.133333,0.06667 0.283333,0.133333 0.45,0.2 l 7.4,3.6 c 0.8,0.366667 1.391667,0.958333 1.775,1.775 0.383333,0.816667 0.491667,1.658333 0.325,2.525 l -1.8,10.9 c -0.166667,0.966667 -0.633333,1.758333 -1.4,2.375 C 35.883333,41.691667 35.016667,42 34.05,42 Z"
     id="path2"
     inkscape:export-filename="C:\Users\Luca\repos\monsterfangen\assets\ui\icons\interact.png"
     inkscape:export-xdpi="2000"
     inkscape:export-ydpi="2000"
     sodipodi:nodetypes="sssccsccssssscssccsccsss"
     style="fill:#000000;fill-opacity:0.34999999" />
</svg>
